<svg width="11" height="15" viewBox="0 0 11 15" fill="none" xmlns="http://www.w3.org/2000/svg">
<path fill-rule="evenodd" clip-rule="evenodd" d="M1.85002 1.37539C1.79035 1.37539 1.73312 1.3991 1.69093 1.44129C1.64873 1.48349 1.62502 1.54072 1.62502 1.60039V12.9039L5.06294 10.4974C5.29535 10.3347 5.6047 10.3347 5.83711 10.4974L9.27502 12.9039V1.60039C9.27502 1.54072 9.25132 1.48349 9.20912 1.44129C9.16693 1.3991 9.1097 1.37539 9.05002 1.37539H1.85002ZM8.85502 14.2578C9.02357 14.3758 9.22123 14.4452 9.42651 14.4587C9.63179 14.4721 9.83682 14.429 10.0193 14.3341C10.2018 14.2391 10.3548 14.0959 10.4616 13.9201C10.5684 13.7443 10.6249 13.5425 10.625 13.3368V1.60039C10.625 1.18267 10.4591 0.782067 10.1637 0.486697C9.86835 0.191328 9.46774 0.0253906 9.05002 0.0253906H1.85002C1.43231 0.0253906 1.0317 0.191327 0.736331 0.486697C0.440961 0.782067 0.275024 1.18267 0.275024 1.60039V13.3364C0.275159 13.5421 0.331698 13.7443 0.438492 13.9201C0.545286 14.0959 0.698247 14.2391 0.880736 14.3341C1.06323 14.429 1.26826 14.4721 1.47354 14.4587C1.67881 14.4452 1.87648 14.3758 2.04502 14.2578L5.45002 11.8743L8.85502 14.2578Z" fill="#6D747A"/>
</svg>
