<svg width="10" height="10" viewBox="0 0 10 10" fill="none" xmlns="http://www.w3.org/2000/svg">
<path d="M5.62498 0.833984C5.62498 0.488806 5.34516 0.208984 4.99998 0.208984C4.6548 0.208984 4.37498 0.488806 4.37498 0.833984V4.37565H0.833313C0.488135 4.37565 0.208313 4.65547 0.208313 5.00065C0.208313 5.34583 0.488135 5.62565 0.833313 5.62565H4.37498V9.16732C4.37498 9.5125 4.6548 9.79232 4.99998 9.79232C5.34516 9.79232 5.62498 9.5125 5.62498 9.16732V5.62565H9.16665C9.51182 5.62565 9.79165 5.34583 9.79165 5.00065C9.79165 4.65547 9.51182 4.37565 9.16665 4.37565H5.62498V0.833984Z" fill="#6D747A"/>
</svg>
